REM DIRINDEX 1\2\3,1\2\4,1\2\5,1\2\6
REM DIRNAME cjc157,folder01,folder02,folder03,folder04,folder05
TITLE ""
FILE "016 016.mp3" MP3
  TRACK 01 AUDIO
    TITLE "0:"
    INDEX 01 00:00:00
  TRACK 02 AUDIO
    TITLE "3:cjc157_0561"
    INDEX 01 00:00:09
  TRACK 03 AUDIO
    TITLE "0:"
    INDEX 01 00:01:40
  TRACK 04 AUDIO
    TITLE "4:cjc157_0562"
    INDEX 01 00:02:14
  TRACK 05 AUDIO
    TITLE "0:"
    INDEX 01 00:03:29
  TRACK 06 AUDIO
    TITLE "5:cjc157_0563"
    INDEX 01 00:03:72
  TRACK 07 AUDIO
    TITLE "0:"
    INDEX 01 00:06:22
  TRACK 08 AUDIO
    TITLE "5:cjc157_0564"
    INDEX 01 00:06:69
  TRACK 09 AUDIO
    TITLE "0:"
    INDEX 01 00:08:32
  TRACK 10 AUDIO
    TITLE "3:cjc157_0565"
    INDEX 01 00:09:00
  TRACK 11 AUDIO
    TITLE "0:"
    INDEX 01 00:10:39
  TRACK 12 AUDIO
    TITLE "4:cjc157_0566"
    INDEX 01 00:11:11
  TRACK 13 AUDIO
    TITLE "0:"
    INDEX 01 00:12:34
  TRACK 14 AUDIO
    TITLE "5:cjc157_0567"
    INDEX 01 00:13:06
  TRACK 15 AUDIO
    TITLE "0:"
    INDEX 01 00:15:38
  TRACK 16 AUDIO
    TITLE "5:cjc157_0568"
    INDEX 01 00:16:08
  TRACK 17 AUDIO
    TITLE "0:"
    INDEX 01 00:18:64
  TRACK 18 AUDIO
    TITLE "3:cjc157_0569"
    INDEX 01 00:19:32
  TRACK 19 AUDIO
    TITLE "0:"
    INDEX 01 00:20:67
  TRACK 20 AUDIO
    TITLE "4:cjc157_0570"
    INDEX 01 00:21:37
  TRACK 21 AUDIO
    TITLE "0:"
    INDEX 01 00:22:52
  TRACK 22 AUDIO
    TITLE "5:cjc157_0571"
    INDEX 01 00:23:22
  TRACK 23 AUDIO
    TITLE "0:"
    INDEX 01 00:24:53
  TRACK 24 AUDIO
    TITLE "5:cjc157_0572"
    INDEX 01 00:25:21
  TRACK 25 AUDIO
    TITLE "0:"
    INDEX 01 00:28:27
  TRACK 26 AUDIO
    TITLE "5:cjc157_0573"
    INDEX 01 00:29:03
  TRACK 27 AUDIO
    TITLE "0:"
    INDEX 01 00:30:73
  TRACK 28 AUDIO
    TITLE "3:cjc157_0574"
    INDEX 01 00:31:47
  TRACK 29 AUDIO
    TITLE "0:"
    INDEX 01 00:33:07
  TRACK 30 AUDIO
    TITLE "4:cjc157_0575"
    INDEX 01 00:33:52
  TRACK 31 AUDIO
    TITLE "0:"
    INDEX 01 00:35:04
  TRACK 32 AUDIO
    TITLE "5:cjc157_0576"
    INDEX 01 00:35:47
  TRACK 33 AUDIO
    TITLE "0:"
    INDEX 01 00:38:61
  TRACK 34 AUDIO
    TITLE "5:cjc157_0577"
    INDEX 01 00:39:47
  TRACK 35 AUDIO
    TITLE "0:"
    INDEX 01 00:42:29
  TRACK 36 AUDIO
    TITLE "3:cjc157_0578"
    INDEX 01 00:42:70
  TRACK 37 AUDIO
    TITLE "0:"
    INDEX 01 00:44:60
  TRACK 38 AUDIO
    TITLE "4:cjc157_0579"
    INDEX 01 00:45:28
  TRACK 39 AUDIO
    TITLE "0:"
    INDEX 01 00:46:29
  TRACK 40 AUDIO
    TITLE "5:cjc157_0580"
    INDEX 01 00:46:74
  TRACK 41 AUDIO
    TITLE "0:"
    INDEX 01 00:49:31
  TRACK 42 AUDIO
    TITLE "5:cjc157_0581"
    INDEX 01 00:50:01
  TRACK 43 AUDIO
    TITLE "0:"
    INDEX 01 00:53:04
  TRACK 44 AUDIO
    TITLE "3:cjc157_0582"
    INDEX 01 00:53:51
  TRACK 45 AUDIO
    TITLE "0:"
    INDEX 01 00:54:50
  TRACK 46 AUDIO
    TITLE "4:cjc157_0583"
    INDEX 01 00:55:20
  TRACK 47 AUDIO
    TITLE "0:"
    INDEX 01 00:56:37
  TRACK 48 AUDIO
    TITLE "5:cjc157_0584"
    INDEX 01 00:56:74
  TRACK 49 AUDIO
    TITLE "0:"
    INDEX 01 00:59:00
  TRACK 50 AUDIO
    TITLE "5:cjc157_0585"
    INDEX 01 00:59:45
  TRACK 51 AUDIO
    TITLE "0:"
    INDEX 01 01:02:05
  TRACK 52 AUDIO
    TITLE "3:cjc157_0586"
    INDEX 01 01:02:48
  TRACK 53 AUDIO
    TITLE "0:"
    INDEX 01 01:04:07
  TRACK 54 AUDIO
    TITLE "4:cjc157_0587"
    INDEX 01 01:04:52
  TRACK 55 AUDIO
    TITLE "0:"
    INDEX 01 01:05:69
  TRACK 56 AUDIO
    TITLE "5:cjc157_0588"
    INDEX 01 01:06:42
  TRACK 57 AUDIO
    TITLE "0:"
    INDEX 01 01:08:58
  TRACK 58 AUDIO
    TITLE "3:cjc157_0589"
    INDEX 01 01:09:28
  TRACK 59 AUDIO
    TITLE "0:"
    INDEX 01 01:10:61
  TRACK 60 AUDIO
    TITLE "4:cjc157_0590"
    INDEX 01 01:11:29
  TRACK 61 AUDIO
    TITLE "0:"
    INDEX 01 01:12:48
  TRACK 62 AUDIO
    TITLE "5:cjc157_0591"
    INDEX 01 01:13:20
  TRACK 63 AUDIO
    TITLE "0:"
    INDEX 01 01:16:42
  TRACK 64 AUDIO
    TITLE "3:cjc157_0592"
    INDEX 01 01:17:14
  TRACK 65 AUDIO
    TITLE "0:"
    INDEX 01 01:18:39
  TRACK 66 AUDIO
    TITLE "4:cjc157_0593"
    INDEX 01 01:19:09
  TRACK 67 AUDIO
    TITLE "0:"
    INDEX 01 01:20:34
  TRACK 68 AUDIO
    TITLE "5:cjc157_0594"
    INDEX 01 01:21:02
  TRACK 69 AUDIO
    TITLE "0:"
    INDEX 01 01:23:44
  TRACK 70 AUDIO
    TITLE "5:cjc157_0595"
    INDEX 01 01:24:18
  TRACK 71 AUDIO
    TITLE "0:"
    INDEX 01 01:27:38
  TRACK 72 AUDIO
    TITLE "3:cjc157_0596"
    INDEX 01 01:28:04
  TRACK 73 AUDIO
    TITLE "0:"
    INDEX 01 01:29:31
  TRACK 74 AUDIO
    TITLE "4:cjc157_0597"
    INDEX 01 01:30:03
  TRACK 75 AUDIO
    TITLE "0:"
    INDEX 01 01:31:08
  TRACK 76 AUDIO
    TITLE "5:cjc157_0598"
    INDEX 01 01:31:55
  TRACK 77 AUDIO
    TITLE "0:"
    INDEX 01 01:34:12
